<svg xmlns="http://www.w3.org/2000/svg" viewBox="0 0 31 31">
  <path fill="#000" d="M28.992,0H2.1A2.094,2.094,0,0,0,0,2V28.8A2.12,2.12,0,0,0,2,31H28.892a2.03,2.03,0,0,0,2.1-2V2.1a1.967,1.967,0,0,0-2-2.1Z"></path>
  <path fill="#fff" d="M26.269,22.34H23.638c-.986,0-1.315-.877-3.069-2.631-1.535-1.535-2.3-1.754-2.631-1.754-.548,0-.658.11-.658.877v2.412c0,.657-.219.986-1.863.986a10.318,10.318,0,0,1-8.112-4.823C4.016,12.8,3.139,9.3,3.139,8.637c0-.438.11-.767.877-.767H6.647c.658,0,.877.329,1.206.986,1.315,3.727,3.508,7.126,4.385,7.126.329,0,.438-.11.438-.987V11.049c-.109-1.754-1.1-1.973-1.1-2.631a.708.708,0,0,1,.658-.658H16.4c.548,0,.768.329.768.987v5.262c0,.548.219.767.438.767.329,0,.658-.219,1.206-.877A27.121,27.121,0,0,0,22.1,8.527,1.349,1.349,0,0,1,23.31,7.76h2.631c.767,0,.986.439.767.987-.329,1.534-3.618,6.139-3.508,6.139-.329.438-.438.657,0,1.205.329.439,1.206,1.206,1.864,1.864a12.077,12.077,0,0,1,2.192,3.069C27.475,22.011,27.037,22.34,26.269,22.34Z"></path>
</svg>
