<svg xmlns="http://www.w3.org/2000/svg" viewBox="0 0 30 30">
  <path fill="#000" d="M27.9,30c1.1,0,2-0.8,2.1-1.9c0,0,0,0,0-0.1v-0.1V2.1C30,1,29.2,0,28.1,0c0,0,0,0-0.1,0H2.1C1,0,0,0.8,0,1.9C0,2,0,2,0,2s0,0,0,0.1v25.8c0,1.1,0.8,2,1.9,2.1c0,0,0,0,0.1,0H27.9z"></path>
  <path fill="#fff" d="M24.9,9.5c-0.2-0.9-0.9-1.7-1.8-1.9C19.9,6.8,15,6.9,15,6.9v0c0,0-5-0.1-8.2,0.7C5.9,7.8,5.2,8.6,5,9.5c-0.5,1.7-0.5,5.1-0.5,5.1c0,0.7,0.1,3.5,0.5,4.9c0.2,0.9,0.9,1.7,1.8,1.9c3.2,0.8,8.2,0.7,8.2,0.7v0c0,0,4.9,0.1,8.1-0.7c0.9-0.2,1.6-1,1.8-1.9c0.4-1.4,0.5-4.2,0.5-4.9C25.4,14.6,25.4,11.2,24.9,9.5z M13,17.7v-6.3l5.4,3.2L13,17.7z"></path>
</svg>
