<svg xmlns="http://www.w3.org/2000/svg" viewBox="0 0 30 30">
  <path fill="#000" d="M27.9,0H2.1C1,0,0,0.8,0,1.9C0,2,0,2,0,2s0,0,0,0.1V28c0,1,0.8,2,1.9,2c0,0,0,0,0.1,0h25.9c1.1,0,2-0.8,2.1-1.9c0,0,0,0,0-0.1v-0.1V2.1C30,1,29.2,0,28.1,0C28,0,28,0,27.9,0L27.9,0z"></path>
  <path fill="#fff" d="M23.5,5.3L4.2,13.3c-0.4,0.2-0.6,0.6-0.4,1c0.1,0.2,0.3,0.4,0.5,0.4l4.3,1.1l2.1,6.5c0.1,0.4,0.6,0.6,1,0.5c0.1,0,0.3-0.1,0.3-0.2l2.7-3.1l4.9,3.9c0.3,0.3,0.8,0.2,1.1-0.1c0.1-0.1,0.1-0.2,0.2-0.3l3.7-16.8c0.1-0.4-0.2-0.8-0.6-0.9C23.8,5.2,23.7,5.2,23.5,5.3z M20,9.5l-8.2,7.2c-0.2,0.2-0.3,0.4-0.3,0.6l-0.3,3.3c0,0.1-0.1,0.1-0.1,0.1c-0.1,0-0.1,0-0.1-0.1l-1.3-4.7c-0.1-0.2,0-0.4,0.2-0.5l10.1-6.1C20,9.2,20.1,9.4,20,9.5L20,9.5z"></path>
</svg>
